# xmcd CD database file
#
# Track frame offsets:
#	150
#	20300
#	43352
#	63492
#
# Disc length: 1151 seconds
#
# Revision: 0
# Processed by: cddbd v1.5.1PL0 Copyright (c) Steve Scherf et al.
# Submitted via: CDex 1.51
#
DISCID=31047d04
DTITLE=新堂 敦士 - SLOW DOWN 〜地球よ廻れ〜
DYEAR=1900
DGENRE=JPop
TTITLE0=SLOW DOWN 〜地球よ廻れ〜
TTITLE1=KNOCK 〜闇の向こうへ〜
TTITLE2=SLOW DOWN 〜地球よ廻れ〜(karaoke)
TTITLE3=KNOCK 〜闇の向こうへ〜(karaoke)
EXTD=
EXTT0=
EXTT1=
EXTT2=
EXTT3=
PLAYORDER=
